<?xml version="1.0" encoding="UTF-8"?>
<svg id="Layer_1" data-name="Layer 1" xmlns="http://www.w3.org/2000/svg" viewBox="0 0 453.51 71.14">
  <defs>
    <style>
      .cls-1 {
        fill: #fff;
      }
    </style>
  </defs>
  <path class="cls-1" d="M25.74,1.74h28.79v15.48H25.74c-5.13,0-7.74,1.91-7.74,4.61,0,9.92,37.4,3.39,37.4,26.87,0,12.35-10.18,20.7-25.74,20.7H0v-15.48H29.66c5.13,0,7.74-1.91,7.74-4.61C37.4,39.4,0,45.92,0,22.44,0,10.09,10.18,1.74,25.74,1.74Z"/>
  <path class="cls-1" d="M119.16,31.92h-28.52c-7.83,0-12.18,4.09-12.18,11.39,0,8.44,4.35,13.13,12.18,13.13s12.18-4.7,12.18-13.13v-5.3h16.35v31.39h-16.35v-4.09c-3.65,3.91-8.78,5.83-15.57,5.83-15.92,0-25.57-10.52-25.57-27.83,0-16.18,9.65-26.09,25.57-26.09h31.92v14.7Z"/>
  <path class="cls-1" d="M143.87,69.4h-16.35V0h16.35V69.4Z"/>
  <path class="cls-1" d="M160.83,0c6.18,0,10.09,2.96,10.09,7.57s-3.91,7.57-10.09,7.57-10.09-2.96-10.09-7.57,3.91-7.57,10.09-7.57Zm8.18,69.4h-16.35V17.39h16.35v52.01Z"/>
  <path class="cls-1" d="M196.92,17.22h22.18v14.7h-22.18c-4.17,0-6,.87-6,2.44,0,6.26,28.79-.7,28.79,18.61,0,10.09-7.83,16.44-19.74,16.44h-22.87v-14.7h22.87c4.26,0,5.91-.7,5.91-2.26,0-6.35-28.79,.61-28.79-18.7,0-10.18,7.91-16.52,19.83-16.52Z"/>
  <path class="cls-1" d="M263.98,17.39v14.7h-20.79v11.22c0,7.31,4.35,11.39,12.18,11.39h12.96v14.7h-12.96c-18.61,0-28.52-9.22-28.52-26.09V1.57h16.35v15.83h20.79Z"/>
  <path class="cls-1" d="M330.69,31.92h-28.53c-7.83,0-12.18,4.09-12.18,11.39,0,8.44,4.35,13.13,12.18,13.13s12.18-4.7,12.18-13.13v-5.3h16.35v31.39h-16.35v-4.09c-3.65,3.91-8.78,5.83-15.57,5.83-15.92,0-25.57-10.52-25.57-27.83,0-16.18,9.65-26.09,25.57-26.09h31.92v14.7Z"/>
  <path class="cls-1" d="M337.4,43.31c0-16.87,10.35-26.09,28.96-26.09h22.52v14.7h-22.52c-7.83,0-12.18,4.09-12.18,11.39s4.35,11.39,12.18,11.39h22.52v14.7h-22.52c-18.61,0-28.96-9.22-28.96-26.09Z"/>
  <path class="cls-1" d="M437.16,61.57c0-8.44-4.35-13.13-12.18-13.13s-12.18,4.69-12.18,13.13v7.83h-16.35V0h16.35V37.57l18.26-20.35h22.26l-16.09,17.83c10.35,3.31,16.26,12.78,16.26,26.52v7.83h-16.35v-7.83Z"/>
</svg>